<?xml version="1.0" encoding="UTF-8"?>
<svg id="Layer_1" xmlns="http://www.w3.org/2000/svg" version="1.1" viewBox="0 0 800 800">
  <!-- Generator: Adobe Illustrator 29.7.1, SVG Export Plug-In . SVG Version: 2.1.1 Build 8)  -->
  <defs>
    <style>
      .st0 {
        fill: #231f20;
      }

      .st1 {
        fill: #fff;
      }
    </style>
  </defs>
  <rect class="st0" x="407.98" y="857.84" width="257.02" height="65.27"/>
  <polygon class="st1" points="469.86 418.55 616.12 283.39 616.12 125.1 383.32 346.63 383.32 418.55 469.86 418.55"/>
  <polygon class="st1" points="573.74 445.83 675.84 538.48 675.84 655.68 499.72 517.75 499.72 445.83 573.74 445.83"/>
  <polyline class="st0" points="-219.53 451.83 -322.73 356.45 -322.73 244.75 -158.46 401.08 -158.46 451.83"/>
  <polyline class="st0" points="-292.83 451.83 -364.87 517.21 -364.87 599.91 -240.59 502.58 -240.59 451.83"/>
  <path class="st0" d="M1038.11,209.24h10.18c10.34,0,19.48,1.38,27.41,4.15,7.92,2.77,13.83,6.76,17.7,11.96l291.54,365.41h-9.7c-9.38,0-18.6-1.38-27.65-4.15-9.06-2.77-15.52-7-19.4-12.69l-290.07-364.68Z"/>
  <rect class="st0" x="970.14" y="525.49" width="257.02" height="65.27"/>
  <polyline class="st0" points="1390.8 416.32 1456.92 320.94 1456.92 209.24 1340.39 365.56 1340.39 416.32"/>
  <polyline class="st0" points="1391.63 383.68 1456.92 479.06 1456.92 590.76 1340.39 434.44 1340.39 383.68"/>
  <polygon class="st1" points="536.49 655.68 536.49 599.77 116.41 272.14 116.41 333.66 536.49 655.68"/>
  <polygon class="st0" points="-27.31 480.83 -27.31 442.79 -322.73 171.6 -322.73 215.01 -27.31 480.83"/>
</svg>