<?xml version="1.0" encoding="UTF-8"?>
<svg id="Layer_1" xmlns="http://www.w3.org/2000/svg" version="1.1" viewBox="0 0 800 800">
  <!-- Generator: Adobe Illustrator 29.7.1, SVG Export Plug-In . SVG Version: 2.1.1 Build 8)  -->
  <defs>
    <style>
      .st0, .st1 {
        fill: #231f20;
      }

      .st2 {
        fill: #fff;
      }

      .st1 {
        font-family: Montserrat-Regular, Montserrat;
        font-size: 72px;
      }
    </style>
  </defs>
  <rect class="st0" x="407.98" y="857.84" width="257.02" height="65.27"/>
  <polyline class="st0" points="-219.53 451.83 -322.73 356.45 -322.73 244.75 -158.46 401.08 -158.46 451.83"/>
  <polyline class="st0" points="-292.83 451.83 -364.87 517.21 -364.87 599.91 -240.59 502.58 -240.59 451.83"/>
  <path class="st0" d="M1038.11,209.24h10.18c10.34,0,19.48,1.38,27.41,4.15,7.92,2.77,13.83,6.76,17.7,11.96l291.54,365.41h-9.7c-9.38,0-18.6-1.38-27.65-4.15-9.06-2.77-15.52-7-19.4-12.69l-290.07-364.68Z"/>
  <rect class="st0" x="970.14" y="525.49" width="257.02" height="65.27"/>
  <polyline class="st0" points="1390.8 416.32 1456.92 320.94 1456.92 209.24 1340.39 365.56 1340.39 416.32"/>
  <polyline class="st0" points="1391.63 383.68 1456.92 479.06 1456.92 590.76 1340.39 434.44 1340.39 383.68"/>
  <polygon class="st2" points="637.47 -197.86 637.47 -253.76 217.4 -581.39 217.4 -519.88 637.47 -197.86"/>
  <polygon class="st0" points="-27.31 480.83 -27.31 442.79 -322.73 171.6 -322.73 215.01 -27.31 480.83"/>
  <rect class="st2" x="920.34" y="-53.3" width="178.66" height="178.66" rx="11.45" ry="11.45" transform="translate(1749.09 -652.44) rotate(135)"/>
  <text class="st1" transform="translate(1560.61 170.62)"><tspan x="0" y="0">D</tspan></text>
  <path class="st2" d="M576.96,440.32c38.74,9.32,81.26-1.14,111.49-31.37,46.23-46.23,46.23-121.18,0-167.4-31.56-31.56-76.49-41.55-116.54-30.03l5.05,228.8Z"/>
  <polygon class="st0" points="1142.16 -148.98 1194.5 -91.26 1250.97 -91.26 1170.54 -183.14 1142.16 -183.14 1142.16 -148.98"/>
  <polygon class="st2" points="442.64 602.8 88.7 248.85 88.56 125.75 211.66 125.89 565.61 479.83 571.91 609.1 442.64 602.8"/>
  <polygon class="st2" points="165.2 544.99 395.9 314.28 519 314.14 518.86 437.25 288.16 667.95 158.9 674.25 165.2 544.99"/>
  <polygon class="st0" points="1579.75 -24.02 1519.73 36 1491.48 36.03 1491.51 7.78 1551.53 -52.24 1565.64 -38.13 1579.75 -24.02"/>
</svg>